<svg height="512pt" viewBox="0 -88 512 512" width="512pt" xmlns="http://www.w3.org/2000/svg"><path d="m96 304h40v24h-40zm0 0" fill="#ccd1d9"/><path d="m416 304-8 24h-8l-8-24zm0 0" fill="#ccd1d9"/><g fill="#ffce54"><path d="m440 304 8 24h-40l8-24zm0 0"/><path d="m392 304 8 24h-40l8-24zm0 0"/><path d="m416 280 8 24h-40l8-24zm0 0"/></g><path d="m296 224h24v104h-24zm0 0" fill="#965353"/><path d="m216 224h80v104h-80zm0 0" fill="#656d78"/><path d="m192 224h24v104h-24zm0 0" fill="#965353"/><path d="m168 200h176l-16 24h-144zm0 0" fill="#965353"/><path d="m392 160h48l48 168h-40l-8-24h-16l-8-24h-24l-8 24h-16l-8 24h-40v-104h8l16-24h-176l16 24h8v104h-56v-24h8l8-40h-72l8 40h8v24h-72l48-168h48l24-80h32l80-72 80 72h32zm0 0" fill="#ccd1d9"/><path d="m312 80h24l-80-72-12 10.796875zm0 0" fill="#aab2bd"/><path d="m392 160-24-80h-24l24 80zm0 0" fill="#aab2bd"/><path d="m440 160h-24l48 168h24zm0 0" fill="#aab2bd"/><path d="m152 264-8 40h-56l-8-40zm0 0" fill="#656d78"/><path d="m504 336h-496c-4.425781 0-8-3.578125-8-8 0-4.425781 3.574219-8 8-8h496c4.425781 0 8 3.574219 8 8 0 4.421875-3.574219 8-8 8zm0 0"/><path d="m192 336c-4.425781 0-8-3.578125-8-8v-104c0-4.425781 3.574219-8 8-8s8 3.574219 8 8v104c0 4.421875-3.574219 8-8 8zm0 0"/><path d="m216 336c-4.425781 0-8-3.578125-8-8v-104c0-4.425781 3.574219-8 8-8s8 3.574219 8 8v104c0 4.421875-3.574219 8-8 8zm0 0"/><path d="m296 336c-4.425781 0-8-3.578125-8-8v-104c0-4.425781 3.574219-8 8-8s8 3.574219 8 8v104c0 4.421875-3.574219 8-8 8zm0 0"/><path d="m320 336c-4.425781 0-8-3.578125-8-8v-104c0-4.425781 3.574219-8 8-8s8 3.574219 8 8v104c0 4.421875-3.574219 8-8 8zm0 0"/><path d="m184.007812 232c-2.582031 0-5.128906-1.25-6.664062-3.5625l-16-24c-2.457031-3.679688-1.464844-8.640625 2.214844-11.09375 3.679687-2.449219 8.640625-1.464844 11.097656 2.214844l16 24c2.457031 3.679687 1.464844 8.640625-2.214844 11.097656-1.371094.902344-2.914062 1.34375-4.433594 1.34375zm0 0"/><path d="m328 232h-144c-4.425781 0-8-3.578125-8-8 0-4.425781 3.574219-8 8-8h144c4.425781 0 8 3.574219 8 8 0 4.421875-3.574219 8-8 8zm0 0"/><path d="m327.992188 232c-1.519532 0-3.0625-.441406-4.433594-1.34375-3.679688-2.457031-4.671875-7.417969-2.214844-11.097656l16-24c2.449219-3.679688 7.398438-4.664063 11.097656-2.214844 3.679688 2.453125 4.671875 7.414062 2.214844 11.09375l-16 24c-1.535156 2.3125-4.082031 3.5625-6.664062 3.5625zm0 0"/><path d="m344 208h-176c-4.425781 0-8-3.578125-8-8 0-4.425781 3.574219-8 8-8h176c4.425781 0 8 3.574219 8 8 0 4.421875-3.574219 8-8 8zm0 0"/><path d="m87.992188 312c-3.734376 0-7.082032-2.625-7.832032-6.433594l-8-40c-.863281-4.335937 1.945313-8.542968 6.273438-9.414062 4.375-.914063 8.542968 1.941406 9.414062 6.269531l8 40c.863282 4.335937-1.945312 8.546875-6.273437 9.417969-.535157.109375-1.070313.160156-1.582031.160156zm0 0"/><path d="m144 312h-56c-4.425781 0-8-3.578125-8-8 0-4.425781 3.574219-8 8-8h56c4.425781 0 8 3.574219 8 8 0 4.421875-3.574219 8-8 8zm0 0"/><path d="m144.007812 312c-.519531 0-1.046874-.050781-1.574218-.160156-4.328125-.863282-7.144532-5.082032-6.273438-9.417969l8-40c.863282-4.34375 5.078125-7.175781 9.414063-6.269531 4.328125.863281 7.144531 5.078125 6.273437 9.414062l-8 40c-.757812 3.808594-4.105468 6.433594-7.839844 6.433594zm0 0"/><path d="m152 272h-72c-4.425781 0-8-3.578125-8-8 0-4.425781 3.574219-8 8-8h72c4.425781 0 8 3.574219 8 8 0 4.421875-3.574219 8-8 8zm0 0"/><path d="m96 336c-4.425781 0-8-3.578125-8-8v-24c0-4.425781 3.574219-8 8-8s8 3.574219 8 8v24c0 4.421875-3.574219 8-8 8zm0 0"/><path d="m136 336c-4.425781 0-8-3.578125-8-8v-24c0-4.425781 3.574219-8 8-8s8 3.574219 8 8v24c0 4.421875-3.574219 8-8 8zm0 0"/><path d="m360 336c-.832031 0-1.6875-.136719-2.527344-.417969-4.183594-1.390625-6.457031-5.917969-5.058594-10.121093l8-24c1.402344-4.183594 5.898438-6.453126 10.121094-5.054688 4.183594 1.390625 6.457032 5.921875 5.058594 10.121094l-8 24c-1.121094 3.351562-4.242188 5.472656-7.59375 5.472656zm0 0"/><path d="m400 336c-3.351562 0-6.472656-2.121094-7.585938-5.472656l-8-24c-1.398437-4.191406.867188-8.730469 5.058594-10.121094 4.214844-1.398438 8.726563.863281 10.121094 5.054688l8 24c1.398438 4.195312-.867188 8.730468-5.058594 10.121093-.847656.28125-1.703125.417969-2.535156.417969zm0 0"/><path d="m408 336c-.832031 0-1.6875-.136719-2.527344-.417969-4.183594-1.390625-6.457031-5.917969-5.058594-10.121093l8-24c1.394532-4.183594 5.898438-6.453126 10.121094-5.054688 4.183594 1.390625 6.457032 5.921875 5.058594 10.121094l-8 24c-1.121094 3.351562-4.242188 5.472656-7.59375 5.472656zm0 0"/><path d="m440 312h-72c-4.425781 0-8-3.578125-8-8 0-4.425781 3.574219-8 8-8h72c4.425781 0 8 3.574219 8 8 0 4.421875-3.574219 8-8 8zm0 0"/><path d="m448 336c-3.351562 0-6.472656-2.121094-7.585938-5.472656l-8-24c-1.398437-4.191406.867188-8.730469 5.058594-10.121094 4.214844-1.398438 8.71875.863281 10.121094 5.054688l8 24c1.398438 4.195312-.867188 8.730468-5.058594 10.121093-.847656.28125-1.703125.417969-2.535156.417969zm0 0"/><path d="m384 312c-.832031 0-1.6875-.136719-2.527344-.417969-4.183594-1.390625-6.457031-5.917969-5.058594-10.121093l8-24c1.402344-4.183594 5.890626-6.46875 10.121094-5.054688 4.183594 1.390625 6.457032 5.921875 5.058594 10.121094l-8 24c-1.121094 3.351562-4.242188 5.472656-7.59375 5.472656zm0 0"/><path d="m416 288h-24c-4.425781 0-8-3.578125-8-8 0-4.425781 3.574219-8 8-8h24c4.425781 0 8 3.574219 8 8 0 4.421875-3.574219 8-8 8zm0 0"/><path d="m424 312c-3.351562 0-6.472656-2.121094-7.585938-5.472656l-8-24c-1.398437-4.191406.867188-8.730469 5.058594-10.121094 4.222656-1.414062 8.71875.863281 10.121094 5.054688l8 24c1.398438 4.195312-.867188 8.730468-5.058594 10.121093-.847656.28125-1.703125.417969-2.535156.417969zm0 0"/><path d="m24.007812 336c-.734374 0-1.472656-.105469-2.199218-.304688-4.25-1.214843-6.710938-5.648437-5.503906-9.886718l48-168c1.214843-4.257813 5.6875-6.65625 9.886718-5.503906 4.25 1.214843 6.710938 5.644531 5.503906 9.886718l-48 168c-1.007812 3.519532-4.207031 5.808594-7.6875 5.808594zm0 0"/><path d="m136 168h-64c-4.425781 0-8-3.578125-8-8 0-4.425781 3.574219-8 8-8h64c4.425781 0 8 3.574219 8 8 0 4.421875-3.574219 8-8 8zm0 0"/><path d="m120 168c-.761719 0-1.527344-.113281-2.296875-.335938-4.230469-1.273437-6.632813-5.738281-5.367187-9.960937l24-80c1.265624-4.230469 5.703124-6.625 9.960937-5.367187 4.230469 1.269531 6.632813 5.734374 5.367187 9.957031l-24 80c-1.039062 3.472656-4.214843 5.707031-7.664062 5.707031zm0 0"/><path d="m216 88h-72c-4.425781 0-8-3.578125-8-8 0-4.425781 3.574219-8 8-8h72c4.425781 0 8 3.574219 8 8 0 4.421875-3.574219 8-8 8zm0 0"/><path d="m176 88c-2.183594 0-4.367188-.890625-5.945312-2.648438-2.949219-3.28125-2.6875-8.34375.59375-11.296874l80-72c3.28125-2.953126 8.34375-2.695313 11.296874.59375 2.949219 3.277343 2.6875 8.34375-.59375 11.292968l-80 72c-1.527343 1.378906-3.449218 2.058594-5.351562 2.058594zm0 0"/><path d="m487.992188 336c-3.480469 0-6.679688-2.289062-7.6875-5.808594l-48-168c-1.207032-4.242187 1.246093-8.671875 5.503906-9.886718 4.207031-1.152344 8.671875 1.238281 9.886718 5.503906l48 168c1.207032 4.238281-1.246093 8.671875-5.503906 9.886718-.726562.199219-1.464844.304688-2.199218.304688zm0 0"/><path d="m440 168h-72c-4.425781 0-8-3.578125-8-8 0-4.425781 3.574219-8 8-8h72c4.425781 0 8 3.574219 8 8 0 4.421875-3.574219 8-8 8zm0 0"/><path d="m392 168c-3.449219 0-6.625-2.234375-7.664062-5.707031l-24-80c-1.265626-4.222657 1.136718-8.6875 5.367187-9.957031 4.234375-1.257813 8.695313 1.136718 9.960937 5.367187l24 80c1.265626 4.222656-1.136718 8.6875-5.367187 9.960937-.769531.222657-1.535156.335938-2.296875.335938zm0 0"/><path d="m368 88h-72c-4.425781 0-8-3.578125-8-8 0-4.425781 3.574219-8 8-8h72c4.425781 0 8 3.574219 8 8 0 4.421875-3.574219 8-8 8zm0 0"/><path d="m336 88c-1.902344 0-3.824219-.679688-5.351562-2.058594l-80-72c-3.28125-2.949218-3.542969-8.015625-.59375-11.292968 2.960937-3.28125 8.007812-3.539063 11.296874-.59375l80 72c3.28125 2.953124 3.542969 8.015624.59375 11.296874-1.578124 1.757813-3.761718 2.648438-5.945312 2.648438zm0 0"/></svg>